<svg width="34" height="34" viewBox="0 0 34 34" fill="none" xmlns="http://www.w3.org/2000/svg">
<path d="M17 0.333313C7.80004 0.333313 0.333374 7.79998 0.333374 17C0.333374 26.2 7.80004 33.6666 17 33.6666C26.2 33.6666 33.6667 26.2 33.6667 17C33.6667 7.79998 26.2 0.333313 17 0.333313ZM8.78337 27.4666C9.50004 25.9666 13.8667 24.5 17 24.5C20.1334 24.5 24.5167 25.9666 25.2167 27.4666C22.95 29.2666 20.1 30.3333 17 30.3333C13.9 30.3333 11.05 29.2666 8.78337 27.4666ZM27.6 25.05C25.2167 22.15 19.4334 21.1666 17 21.1666C14.5667 21.1666 8.78337 22.15 6.40004 25.05C4.70004 22.8166 3.66671 20.0333 3.66671 17C3.66671 9.64998 9.65004 3.66665 17 3.66665C24.35 3.66665 30.3334 9.64998 30.3334 17C30.3334 20.0333 29.3 22.8166 27.6 25.05ZM17 6.99998C13.7667 6.99998 11.1667 9.59998 11.1667 12.8333C11.1667 16.0666 13.7667 18.6666 17 18.6666C20.2334 18.6666 22.8334 16.0666 22.8334 12.8333C22.8334 9.59998 20.2334 6.99998 17 6.99998ZM17 15.3333C15.6167 15.3333 14.5 14.2166 14.5 12.8333C14.5 11.45 15.6167 10.3333 17 10.3333C18.3834 10.3333 19.5 11.45 19.5 12.8333C19.5 14.2166 18.3834 15.3333 17 15.3333Z" fill="black"/>
</svg>
